<svg xmlns="http://www.w3.org/2000/svg" viewBox="0 0 500 500"><g id="freepik--background-complete--inject-59"><rect x="416.78" y="398.49" width="33.12" height="0.25" style="fill:#ebebeb"></rect><rect x="322.53" y="401.21" width="8.69" height="0.25" style="fill:#ebebeb"></rect><rect x="396.59" y="389.21" width="19.19" height="0.25" style="fill:#ebebeb"></rect><rect x="52.46" y="390.89" width="43.19" height="0.25" style="fill:#ebebeb"></rect><rect x="104.56" y="390.89" width="6.33" height="0.25" style="fill:#ebebeb"></rect><rect x="131.47" y="395.11" width="93.68" height="0.25" style="fill:#ebebeb"></rect><path d="M238.4,337.8H45.3a5.71,5.71,0,0,1-5.71-5.71V60.66A5.71,5.71,0,0,1,45.3,55H238.4a5.71,5.71,0,0,1,5.71,5.71V332.09A5.71,5.71,0,0,1,238.4,337.8ZM45.3,55.2a5.47,5.47,0,0,0-5.46,5.46V332.09a5.47,5.47,0,0,0,5.46,5.46H238.4a5.47,5.47,0,0,0,5.46-5.46V60.66a5.47,5.47,0,0,0-5.46-5.46Z" style="fill:#ebebeb"></path><path d="M454.7,337.8H261.6a5.71,5.71,0,0,1-5.71-5.71V60.66A5.71,5.71,0,0,1,261.6,55H454.7a5.71,5.71,0,0,1,5.71,5.71V332.09A5.71,5.71,0,0,1,454.7,337.8ZM261.6,55.2a5.47,5.47,0,0,0-5.46,5.46V332.09a5.47,5.47,0,0,0,5.46,5.46H454.7a5.47,5.47,0,0,0,5.46-5.46V60.66a5.47,5.47,0,0,0-5.46-5.46Z" style="fill:#ebebeb"></path><rect y="382.4" width="500" height="0.25" style="fill:#ebebeb"></rect><path d="M69.87,382.65a101,101,0,0,1,6-8.29c1.38-1.43,4.65-3.21,6-4.63,1.21-1.24,2-3.92,2.58-5.78,6.79-20.35,7.31-89.06,7.31-89.06h13.76s1.17,66.44,6,87.32c.57,2.42,2.28,7.34,3.87,8.68,1.1.92,4,2,5.16,2.89,2.24,1.7,4.3,8.87,4.3,8.87Z" style="fill:#ebebeb"></path><path d="M120.61,373.78c-1.12-.85-4.06-2-5.16-2.89-1.59-1.34-3.3-6.26-3.87-8.68-4.85-20.88-6-87.32-6-87.32h-3.29v38.36l-4.88-17,4.88,47-2.12,11.4L104,373.78l-6.6-2.7,3.3,8.1-13,3.47h37.26S122.85,375.48,120.61,373.78Z" style="fill:#e0e0e0"></path><polygon points="94.53 315.18 97.39 342.17 92.52 352.58 94.53 315.18" style="fill:#e0e0e0"></polygon><polygon points="134.13 283.94 116.84 240.27 124.24 246.29 109.73 208.66 116.1 214.69 102.95 180.03 108.48 186.05 96.97 160.97 85.45 186.05 90.98 180.03 77.83 214.69 84.2 208.66 69.69 246.29 77.09 240.27 59.8 283.94 134.13 283.94" style="fill:#f0f0f0"></polygon><path d="M395.18,382.65a65.66,65.66,0,0,1,4.37-5.43c1-.94,3.38-2.11,4.38-3s1.42-2.56,1.87-3.79c4.94-13.33,5.31-58.37,5.31-58.37h10s.84,43.55,4.37,57.24c.41,1.58,1.66,4.81,2.82,5.68.79.6,2.93,1.34,3.74,1.9,1.63,1.11,3.13,5.81,3.13,5.81Z" style="fill:#ebebeb"></path><path d="M432,376.84c-.81-.56-3-1.3-3.74-1.9-1.16-.87-2.41-4.1-2.82-5.68C422,355.57,421.11,312,421.11,312h-2.4v25.14l-3.54-11.11,3.54,30.82-1.53,7.47,2.78,12.5-4.79-1.77,2.4,5.3-9.48,2.28h27.08S433.67,378,432,376.84Z" style="fill:#e0e0e0"></path><polygon points="413.09 338.43 415.17 356.12 411.63 362.94 413.09 338.43" style="fill:#e0e0e0"></polygon><polygon points="445.35 316.83 431.31 277.66 437.32 283.06 425.54 249.31 430.71 254.71 420.03 223.62 424.52 229.03 415.17 206.53 405.82 229.03 410.32 223.62 399.64 254.71 404.81 249.31 393.03 283.06 399.04 277.66 385 316.83 445.35 316.83" style="fill:#f5f5f5"></polygon><path d="M161.36,382.65a86.32,86.32,0,0,1,6.52-6.68c1.48-1.15,5-2.59,6.52-3.72,1.31-1,2.12-3.16,2.79-4.66,7.36-16.39,7.92-71.74,7.92-71.74H200s1.26,53.52,6.52,70.34c.61,1.94,2.46,5.91,4.19,7,1.19.74,4.37,1.64,5.59,2.33,2.43,1.36,4.66,7.14,4.66,7.14Z" style="fill:#ebebeb"></path><path d="M216.32,375.51c-1.22-.69-4.4-1.59-5.59-2.33-1.73-1.08-3.58-5.05-4.19-7-5.26-16.82-6.52-70.34-6.52-70.34h-3.57v30.9l-5.28-13.66L196.45,351l-2.29,9.18,4.15,15.36-7.14-2.18,3.57,6.52-14.13,2.8H221S218.75,376.87,216.32,375.51Z" style="fill:#e0e0e0"></path><polygon points="188.06 328.3 191.17 350.04 185.89 358.43 188.06 328.3" style="fill:#e0e0e0"></polygon><polygon points="248 301.64 221.25 234.09 232.7 243.4 210.25 185.19 220.1 194.51 199.76 140.9 208.32 150.21 190.51 111.42 172.69 150.21 181.25 140.9 160.91 194.51 170.76 185.19 148.31 243.4 159.76 234.09 133.01 301.64 248 301.64" style="fill:#f0f0f0"></polygon><path d="M278.58,382.65a66.46,66.46,0,0,1,5-5.11c1.14-.88,3.85-2,5-2.85s1.62-2.41,2.14-3.56c5.62-12.54,6.06-54.89,6.06-54.89h11.4s1,40.95,5,53.82c.46,1.48,1.88,4.52,3.21,5.34.91.57,3.34,1.26,4.27,1.78,1.85,1.05,3.57,5.47,3.57,5.47Z" style="fill:#ebebeb"></path><path d="M320.63,377.18c-.93-.52-3.36-1.21-4.27-1.78-1.33-.82-2.75-3.86-3.21-5.34-4-12.87-5-53.82-5-53.82h-2.73v23.64l-4-10.45,4,29-1.76,7,3.18,11.74-5.46-1.66,2.73,5-10.81,2.14H324.2S322.48,378.23,320.63,377.18Z" style="fill:#e0e0e0"></path><polygon points="299.01 341.07 301.39 357.7 297.35 364.12 299.01 341.07" style="fill:#e0e0e0"></polygon><polygon points="344.87 320.68 324.4 268.99 333.16 276.12 315.98 231.59 323.52 238.72 307.96 197.7 314.51 204.82 300.88 175.14 287.25 204.82 293.8 197.7 278.24 238.72 285.78 231.59 268.6 276.12 277.36 268.99 256.89 320.68 344.87 320.68" style="fill:#f5f5f5"></polygon><path d="M324.47,382.65s3.89-6.47,5.43-8.23c1.24-1.42,4.19-3.19,5.43-4.6,1.09-1.23,1.76-3.89,2.32-5.74,6.13-20.21,6.6-88.45,6.6-88.45h12.4s1.05,66,5.43,86.73c.51,2.39,2.05,7.28,3.49,8.61,1,.91,3.63,2,4.65,2.87,2,1.69,3.88,8.81,3.88,8.81Z" style="fill:#ebebeb"></path><path d="M370.22,373.84c-1-.85-3.66-2-4.65-2.87-1.44-1.33-3-6.22-3.49-8.61-4.38-20.74-5.43-86.73-5.43-86.73h-3v38.1l-4.39-16.85,4.39,46.71-1.91,11.32,3.46,18.93-5.94-2.68,3,8-11.76,3.45h33.6S372.24,375.53,370.22,373.84Z" style="fill:#e0e0e0"></path><polygon points="346.7 315.64 349.29 342.44 344.89 352.78 346.7 315.64" style="fill:#e0e0e0"></polygon><polygon points="396.59 279.86 374.33 223.63 383.85 231.38 365.16 182.94 373.37 190.69 356.43 146.07 363.56 153.82 348.73 121.53 333.9 153.82 341.03 146.07 324.1 190.69 332.3 182.94 313.62 231.38 323.14 223.63 300.88 279.86 396.59 279.86" style="fill:#e6e6e6"></polygon><path d="M289.17,133.61c-15.24.4-70.51.83-60.82-5.37s-13.77-1.41-9.52-18.11c3.38-13.31,18-6.64,18-6.64S236.75,86.07,250,85.8s18.47,17,18.47,17,11.25-10.86,22-7.59,2.84,15.32,11.62,17.09,23.62.46,23.42,5.17c-.26,5.88-24.48.61-23.83,6.44s10.32.17,11.21,5.55S295.26,133.45,289.17,133.61Z" style="fill:#f5f5f5"></path><path d="M392.09,116.13c-9.84.55-45.58,1.85-39.43-2.34s-4.05-3.47-2.38-10.66c1.08-4.61,7.42-5.5,7.42-5.5s-.39-11.27,8.17-11.69,12.26,10.63,12.26,10.63,7.08-7.23,14.11-5.31,2.1,11.39,7.81,12.37,8.4.71,8.46,2.88c.07,2.9-8.45.53-8.48,3.1,0,3,19.19.17,19.86,3.64S396,115.91,392.09,116.13Z" style="fill:#f0f0f0"></path><path d="M413,142.08c-10.6.28-49.05.58-42.31-3.73s-9.57-1-6.62-12.6c2.35-9.26,12.54-4.62,12.54-4.62s-.07-12.12,9.14-12.3,12.85,11.8,12.85,11.8,7.83-7.56,15.32-5.28,2,10.66,8.08,11.89,16.44.32,16.29,3.6c-.17,4.08-17,.42-16.57,4.47s7.18.12,7.8,3.87S417.22,142,413,142.08Z" style="fill:#fafafa"></path><path d="M126.73,139.73c-13.38.74-61.92,2.51-53.57-3.18s-5.5-4.72-3.22-14.48C71.4,115.81,80,114.6,80,114.6s-.54-15.31,11.09-15.88,16.66,14.44,16.66,14.44,9.61-9.82,19.16-7.22,2.85,15.48,10.61,16.81,11.41,1,11.48,3.92c.1,3.92-11.48.71-11.51,4.2,0,4.08,26.06.24,27,4.94S132.07,139.43,126.73,139.73Z" style="fill:#f5f5f5"></path></g><g id="freepik--Shadow--inject-59"><ellipse id="freepik--path--inject-59" cx="250" cy="415.69" rx="193.89" ry="11.32" style="fill:#f5f5f5"></ellipse></g><g id="freepik--target-3--inject-59"><path d="M405.34,317.4h-7.2a1.32,1.32,0,0,1-1.13-2,17.49,17.49,0,0,0,2.55-8.05l.49-14a17.7,17.7,0,0,0-17.66-18.88h-1a17.71,17.71,0,0,0-17.67,18.88l.49,14a17.61,17.61,0,0,0,2.56,8.05,1.32,1.32,0,0,1-1.13,2h-7.2a19.49,19.49,0,0,0-19.22,22.68L352,416.84h59.76l12.78-76.76A19.49,19.49,0,0,0,405.34,317.4Z" style="fill:#407BFF"></path><path d="M403,317.4h-7.19a1.32,1.32,0,0,1-1.14-2,17.61,17.61,0,0,0,2.56-8.05l.49-14A17.71,17.71,0,0,0,380,274.51h-1a17.7,17.7,0,0,0-17.66,18.88l.49,14a17.49,17.49,0,0,0,2.55,8.05,1.32,1.32,0,0,1-1.13,2h-7.2a19.48,19.48,0,0,0-19.21,22.68l12.77,76.76H409.4l12.78-76.76A19.48,19.48,0,0,0,403,317.4Z" style="fill:#407BFF"></path><path d="M403,317.4h-7.19a1.32,1.32,0,0,1-1.14-2,17.61,17.61,0,0,0,2.56-8.05l.49-14A17.71,17.71,0,0,0,380,274.51h-1a17.7,17.7,0,0,0-17.66,18.88l.49,14a17.49,17.49,0,0,0,2.55,8.05,1.32,1.32,0,0,1-1.13,2h-7.2a19.48,19.48,0,0,0-19.21,22.68l12.77,76.76H409.4l12.78-76.76A19.48,19.48,0,0,0,403,317.4Z" style="fill:#fff;opacity:0.6000000000000001"></path><path d="M379.52,323A27.51,27.51,0,1,0,407,350.46,27.5,27.5,0,0,0,379.52,323Zm0,49.61a22.1,22.1,0,1,1,22.1-22.1A22.11,22.11,0,0,1,379.52,372.56Z" style="fill:#fff"></path><path d="M379.52,336.32a14.14,14.14,0,1,0,14.14,14.14A14.13,14.13,0,0,0,379.52,336.32Zm0,22.9a8.77,8.77,0,1,1,8.76-8.76A8.76,8.76,0,0,1,379.52,359.22Z" style="fill:#fff"></path></g><g id="freepik--target-2--inject-59"><path d="M144.73,317.4h-7.2a1.32,1.32,0,0,1-1.13-2,17.49,17.49,0,0,0,2.55-8.05l.49-14a17.7,17.7,0,0,0-17.66-18.88h-1a17.71,17.71,0,0,0-17.67,18.88l.49,14a17.61,17.61,0,0,0,2.56,8.05,1.32,1.32,0,0,1-1.14,2H97.85a19.48,19.48,0,0,0-19.22,22.68l12.78,76.76h59.76l12.77-76.76A19.48,19.48,0,0,0,144.73,317.4Z" style="fill:#407BFF"></path><path d="M142.35,317.4h-7.19a1.32,1.32,0,0,1-1.14-2,17.61,17.61,0,0,0,2.56-8.05l.49-14a17.71,17.71,0,0,0-17.67-18.88h-1a17.7,17.7,0,0,0-17.66,18.88l.49,14a17.49,17.49,0,0,0,2.55,8.05,1.32,1.32,0,0,1-1.13,2h-7.2a19.48,19.48,0,0,0-19.21,22.68L89,416.84h59.76l12.78-76.76A19.49,19.49,0,0,0,142.35,317.4Z" style="fill:#407BFF"></path><path d="M142.35,317.4h-7.19a1.32,1.32,0,0,1-1.14-2,17.61,17.61,0,0,0,2.56-8.05l.49-14a17.71,17.71,0,0,0-17.67-18.88h-1a17.7,17.7,0,0,0-17.66,18.88l.49,14a17.49,17.49,0,0,0,2.55,8.05,1.32,1.32,0,0,1-1.13,2h-7.2a19.48,19.48,0,0,0-19.21,22.68L89,416.84h59.76l12.78-76.76A19.49,19.49,0,0,0,142.35,317.4Z" style="fill:#fff;opacity:0.6000000000000001"></path><path d="M118.91,323a27.51,27.51,0,1,0,27.51,27.51A27.51,27.51,0,0,0,118.91,323Zm0,49.61a22.1,22.1,0,1,1,22.1-22.1A22.11,22.11,0,0,1,118.91,372.56Z" style="fill:#fff"></path><path d="M118.91,336.32a14.14,14.14,0,1,0,14.14,14.14A14.14,14.14,0,0,0,118.91,336.32Zm0,22.9a8.77,8.77,0,1,1,8.76-8.76A8.76,8.76,0,0,1,118.91,359.22Z" style="fill:#fff"></path></g><g id="freepik--target-1--inject-59"><path d="M300.39,228.49H286.75a2.49,2.49,0,0,1-2.14-3.77,33.4,33.4,0,0,0,4.84-15.24l.92-26.47a33.54,33.54,0,0,0-33.46-35.77h-1.85A33.54,33.54,0,0,0,221.6,183l.93,26.47a33.39,33.39,0,0,0,4.83,15.24,2.49,2.49,0,0,1-2.14,3.77H211.59a36.9,36.9,0,0,0-36.4,43l24.2,145.39H312.58l24.21-145.39A36.9,36.9,0,0,0,300.39,228.49Z" style="fill:#407BFF"></path><path d="M295.89,228.49H282.25a2.49,2.49,0,0,1-2.14-3.77A33.4,33.4,0,0,0,285,209.48l.92-26.47a33.54,33.54,0,0,0-33.46-35.77h-1.85A33.54,33.54,0,0,0,217.1,183l.93,26.47a33.39,33.39,0,0,0,4.83,15.24,2.49,2.49,0,0,1-2.14,3.77H207.09a36.9,36.9,0,0,0-36.4,43l24.2,145.39H308.08l24.21-145.39A36.9,36.9,0,0,0,295.89,228.49Z" style="fill:#407BFF"></path><path d="M295.89,228.49H282.25a2.49,2.49,0,0,1-2.14-3.77A33.4,33.4,0,0,0,285,209.48l.92-26.47a33.54,33.54,0,0,0-33.46-35.77h-1.85A33.54,33.54,0,0,0,217.1,183l.93,26.47a33.39,33.39,0,0,0,4.83,15.24,2.49,2.49,0,0,1-2.14,3.77H207.09a36.9,36.9,0,0,0-36.4,43l24.2,145.39H308.08l24.21-145.39A36.9,36.9,0,0,0,295.89,228.49Z" style="fill:#fff;opacity:0.6000000000000001"></path><path d="M251.49,233.21a57.89,57.89,0,1,0,57.89,57.89A57.89,57.89,0,0,0,251.49,233.21Zm0,104.4A46.51,46.51,0,1,1,298,291.1,46.51,46.51,0,0,1,251.49,337.61Z" style="fill:#fff"></path><path d="M251.49,261.34a29.76,29.76,0,1,0,29.75,29.76A29.76,29.76,0,0,0,251.49,261.34Zm0,48.2a18.44,18.44,0,1,1,18.44-18.44A18.44,18.44,0,0,1,251.49,309.54Z" style="fill:#fff"></path><path d="M250.29,282.31s5.85,1.95,8.1-4.95c0,0-.6,5.7,7.95,6.15,0,0-3.75,2.55-1.65,6.3,0,0-5.25,2.25-4.8,5.55,0,0-3.9-3.6-7.35-1.5,0,0,2.1-3.9-2.25-5.1C250.29,288.76,253.74,286.51,250.29,282.31Z" style="opacity:0.2"></path><path d="M249.39,281.41s5.85,1.95,8.1-5c0,0-.6,5.7,7.95,6.15,0,0-3.75,2.55-1.65,6.3,0,0-5.25,2.25-4.8,5.55,0,0-3.9-3.6-7.35-1.5,0,0,2.1-3.9-2.25-5.1C249.39,287.86,252.84,285.61,249.39,281.41Z" style="fill:#263238"></path><path d="M249.39,281.41s5.85,1.95,8.1-5c0,0-.6,5.7,7.95,6.15,0,0-3.75,2.55-1.65,6.3,0,0-5.25,2.25-4.8,5.55,0,0-3.9-3.6-7.35-1.5,0,0,2.1-3.9-2.25-5.1C249.39,287.86,252.84,285.61,249.39,281.41Z" style="fill:#fff;opacity:0.6000000000000001"></path><circle cx="256.59" cy="286.36" r="3.96" style="fill:#263238"></circle><path d="M275.9,258.46s4.68,1.56,6.48-4c0,0-.48,4.56,6.36,4.92,0,0-3,2-1.32,5,0,0-4.2,1.8-3.84,4.44,0,0-3.12-2.88-5.88-1.2,0,0,1.68-3.12-1.8-4.08C275.9,263.62,278.66,261.82,275.9,258.46Z" style="opacity:0.2"></path><path d="M275.18,257.74s4.68,1.56,6.48-4c0,0-.48,4.56,6.36,4.92,0,0-3,2-1.32,5,0,0-4.2,1.8-3.84,4.44,0,0-3.12-2.88-5.88-1.2,0,0,1.68-3.12-1.8-4.08C275.18,262.9,277.94,261.1,275.18,257.74Z" style="fill:#263238"></path><path d="M275.18,257.74s4.68,1.56,6.48-4c0,0-.48,4.56,6.36,4.92,0,0-3,2-1.32,5,0,0-4.2,1.8-3.84,4.44,0,0-3.12-2.88-5.88-1.2,0,0,1.68-3.12-1.8-4.08C275.18,262.9,277.94,261.1,275.18,257.74Z" style="fill:#fff;opacity:0.6000000000000001"></path><circle cx="280.94" cy="261.7" r="3.17" style="fill:#263238"></circle><path d="M281.14,340.74s4.68,1.56,6.48-4c0,0-.48,4.56,6.36,4.92,0,0-3,2-1.32,5,0,0-4.2,1.8-3.84,4.44,0,0-3.12-2.88-5.88-1.2,0,0,1.68-3.12-1.8-4.08C281.14,345.9,283.9,344.1,281.14,340.74Z" style="opacity:0.2"></path><path d="M280.42,340s4.68,1.56,6.48-4c0,0-.48,4.56,6.36,4.92,0,0-3,2-1.32,5,0,0-4.2,1.8-3.84,4.44,0,0-3.12-2.88-5.88-1.2,0,0,1.68-3.12-1.8-4.08C280.42,345.18,283.18,343.38,280.42,340Z" style="fill:#263238"></path><path d="M280.42,340s4.68,1.56,6.48-4c0,0-.48,4.56,6.36,4.92,0,0-3,2-1.32,5,0,0-4.2,1.8-3.84,4.44,0,0-3.12-2.88-5.88-1.2,0,0,1.68-3.12-1.8-4.08C280.42,345.18,283.18,343.38,280.42,340Z" style="fill:#fff;opacity:0.6000000000000001"></path><circle cx="286.18" cy="343.98" r="3.17" style="fill:#263238"></circle><path d="M211.23,262.24s2.76,5.52,9.23,2.23c0,0-5.17,6.68,1.27,8.48a6.69,6.69,0,0,0-4.78,4.84s-6.14-2.18-8.16.47c0,0-.21-5.3-4.14-6.26,0,0,3.59-2.35,0-6.7C204.65,265.3,210.7,267.65,211.23,262.24Z" style="opacity:0.2"></path><path d="M211.23,260.44s2.76,5.52,9.23,2.23c0,0-5.17,6.68,1.27,8.48A6.69,6.69,0,0,0,217,276s-6.14-2.18-8.16.47c0,0-.21-5.3-4.14-6.26,0,0,3.59-2.35,0-6.7C204.65,263.5,210.7,265.85,211.23,260.44Z" style="fill:#263238"></path><path d="M211.22,260.44s2.77,5.52,9.23,2.23c0,0-5.16,6.68,1.28,8.48A6.69,6.69,0,0,0,217,276s-6.14-2.18-8.15.47c0,0-.22-5.3-4.15-6.25,0,0,3.59-2.36,0-6.7C204.65,263.51,210.7,265.85,211.22,260.44Z" style="fill:#fff;opacity:0.7000000000000001"></path><circle cx="212.29" cy="269.35" r="3.96" style="fill:#263238"></circle></g><g id="freepik--Sight--inject-59"><polygon points="260.55 213.62 242.3 213.62 245.3 187.3 257.55 187.3 260.55 213.62" style="fill:#263238"></polygon><path d="M243.49,203.23l-1.19,10.39h18.25l-1.18-10.39q-3.93-.34-7.94-.35T243.49,203.23Z"></path><polygon points="280.83 413.75 276.02 375.75 276.02 366.49 226.83 366.49 226.83 375.75 222.02 413.75 222.02 416.84 280.83 416.84 280.83 413.75" style="fill:#263238"></polygon><path d="M226.83,375.26a87.45,87.45,0,0,0,49.19,0v-8.77H226.83Z" style="opacity:0.8"></path><path d="M251.43,211.28A80.67,80.67,0,1,0,332.09,292,80.67,80.67,0,0,0,251.43,211.28Zm0,148A67.3,67.3,0,1,1,318.72,292,67.3,67.3,0,0,1,251.43,359.24Z" style="fill:#263238"></path><path d="M299.75,245.14a122.42,122.42,0,0,1-95.13,95.13,67.28,67.28,0,0,0,95.13-95.13Z" style="fill:#fff;opacity:0.6000000000000001"></path><rect x="250.53" y="224.59" width="1.8" height="9" style="fill:#407BFF"></rect><rect x="250.53" y="350.52" width="1.8" height="9" style="fill:#407BFF"></rect><polygon points="252.33 287.55 250.53 287.55 250.53 291.15 246.93 291.15 246.93 292.95 250.53 292.95 250.53 296.55 252.33 296.55 252.33 292.95 255.93 292.95 255.93 291.15 252.33 291.15 252.33 287.55" style="fill:#407BFF"></polygon><rect x="237.48" y="287.55" width="0.9" height="9" style="fill:#407BFF"></rect><rect x="228.49" y="287.55" width="0.9" height="9" style="fill:#407BFF"></rect><rect x="219.5" y="287.55" width="0.9" height="9" style="fill:#407BFF"></rect><rect x="210.5" y="287.55" width="0.9" height="9" style="fill:#407BFF"></rect><rect x="201.51" y="287.55" width="0.9" height="9" style="fill:#407BFF"></rect><rect x="300.45" y="287.55" width="0.9" height="9" style="fill:#407BFF"></rect><rect x="291.45" y="287.55" width="0.9" height="9" style="fill:#407BFF"></rect><rect x="282.46" y="287.55" width="0.9" height="9" style="fill:#407BFF"></rect><rect x="273.46" y="287.55" width="0.9" height="9" style="fill:#407BFF"></rect><rect x="264.47" y="287.55" width="0.9" height="9" style="fill:#407BFF"></rect><rect x="246.93" y="341.07" width="9" height="0.9" style="fill:#407BFF"></rect><rect x="246.93" y="332.08" width="9" height="0.9" style="fill:#407BFF"></rect><rect x="246.93" y="323.08" width="9" height="0.9" style="fill:#407BFF"></rect><rect x="246.93" y="314.09" width="9" height="0.9" style="fill:#407BFF"></rect><rect x="246.93" y="305.1" width="9" height="0.9" style="fill:#407BFF"></rect><rect x="246.93" y="278.11" width="9" height="0.9" style="fill:#407BFF"></rect><rect x="246.93" y="269.12" width="9" height="0.9" style="fill:#407BFF"></rect><rect x="246.93" y="260.12" width="9" height="0.9" style="fill:#407BFF"></rect><rect x="246.93" y="251.13" width="9" height="0.9" style="fill:#407BFF"></rect><rect x="246.93" y="242.13" width="9" height="0.9" style="fill:#407BFF"></rect><rect x="309.89" y="291.15" width="9" height="1.8" style="fill:#407BFF"></rect><rect x="183.96" y="291.15" width="9" height="1.8" style="fill:#407BFF"></rect></g></svg>
